<svg xmlns="http://www.w3.org/2000/svg" viewBox="0 0 1097 145.5"><defs><style>.a{isolation:isolate;}.b,.d,.h{fill:none;}.b{stroke:#3fa9f5;}.b,.d,.e,.f,.g,.h{stroke-miterlimit:10;}.b,.h{stroke-width:2px;}.c{fill:#999;}.d{stroke:#4d4d4d;stroke-dasharray:3;}.d,.e,.f,.g{stroke-width:0.5px;}.e{fill:#ffdd15;}.e,.f,.g{stroke:#231f20;mix-blend-mode:multiply;}.f{fill:#eb008b;}.g{fill:#00adee;}.h{stroke:#000;}</style></defs><title>abscissa</title><g class="a"><path class="b" d="M804.25,145.44c9-.44,19,.12,33-1.44,31.28-3.49,45.44-40,52-50.56,11.3-18.25,13-23,25-37,7-8.11,17.5-14.19,25.5-14.19" transform="translate(0 -16.25)"/><path class="b" d="M1074.75,145.44c-9-.44-19,.12-33-1.44-31.28-3.49-45.44-40-52-50.56-11.3-18.25-13-23-25-37-7-8.11-17.5-14.19-25.5-14.19" transform="translate(0 -16.25)"/><path class="c" d="M280.33,37.1a40.59,40.59,0,0,1,11.77,1.65,27.5,27.5,0,0,1,9.6,5,23.54,23.54,0,0,1,6.45,8.33,27.29,27.29,0,0,1,2.33,11.7A24.6,24.6,0,0,1,308.75,73,24.89,24.89,0,0,1,304,80.6a23.59,23.59,0,0,1-16.2,7.65v.3a29.28,29.28,0,0,1,10,2,25.44,25.44,0,0,1,8.25,5.25,25,25,0,0,1,5.63,8.25,27.67,27.67,0,0,1,2.1,11,28.94,28.94,0,0,1-2.63,12.67,24.84,24.84,0,0,1-7.27,9.08,32.7,32.7,0,0,1-11.18,5.47,50.74,50.74,0,0,1-14.17,1.88H234.28V37.1Zm0,49.8a36.05,36.05,0,0,0,10.27-1.43,25.34,25.34,0,0,0,8.63-4.35,21.19,21.19,0,0,0,8.25-17.32,24.53,24.53,0,0,0-2.1-10.58,20.54,20.54,0,0,0-5.78-7.35A24.75,24.75,0,0,0,291,41.52a38.72,38.72,0,0,0-10.65-1.42h-43V86.9Zm-.45,54.3a45.17,45.17,0,0,0,12.22-1.58,27.63,27.63,0,0,0,9.75-4.8,22.87,22.87,0,0,0,6.53-8.1,25.65,25.65,0,0,0,2.4-11.47,24.43,24.43,0,0,0-2.63-11.85,22.63,22.63,0,0,0-6.9-7.8,28.8,28.8,0,0,0-9.75-4.35,46.46,46.46,0,0,0-11.17-1.35h-43v51.3Z" transform="translate(0 -16.25)"/><path class="c" d="M425.45,53.22a25.75,25.75,0,0,0-7.35-9.15,28.42,28.42,0,0,0-10.87-5,58.17,58.17,0,0,0-13.5-1.5,62.65,62.65,0,0,0-11.55,1.12,33.68,33.68,0,0,0-10.88,4,24.19,24.19,0,0,0-8,7.57q-3.15,4.72-3.15,11.93t3.22,11.55a24.19,24.19,0,0,0,8.4,7A48.74,48.74,0,0,0,383.53,85q6.6,1.5,13.5,3.15,7.5,2,14.17,3.75a44.91,44.91,0,0,1,11.63,4.8,22.61,22.61,0,0,1,7.87,7.95q2.93,5,2.93,13.35a24.56,24.56,0,0,1-3.3,13,27.85,27.85,0,0,1-8.7,8.92,37.47,37.47,0,0,1-12.15,5.1,59.88,59.88,0,0,1-13.65,1.58A64.23,64.23,0,0,1,379,144.5a35.56,35.56,0,0,1-13.35-6.68,30,30,0,0,1-8.7-11.77q-3.07-7.2-2.92-17.4h3a41.36,41.36,0,0,0,2.85,16.27,27.68,27.68,0,0,0,8,10.88,32.11,32.11,0,0,0,12.3,6.07,61.11,61.11,0,0,0,15.68,1.88,55.35,55.35,0,0,0,12.52-1.43,35.09,35.09,0,0,0,11.18-4.57,25.32,25.32,0,0,0,8-8.1,22,22,0,0,0,3.08-11.85q0-8.1-3.53-12.83a25.43,25.43,0,0,0-9-7.5A50.56,50.56,0,0,0,406,93.27q-6.68-1.41-12.82-2.92-6.45-1.5-12.9-3.15a47.41,47.41,0,0,1-11.63-4.58,23.42,23.42,0,0,1-8.32-7.8q-3.15-4.86-3.15-12.67t3.3-13.28A25.28,25.28,0,0,1,369,40.4a37.41,37.41,0,0,1,11.77-4.5,64,64,0,0,1,13-1.35,58.81,58.81,0,0,1,14.62,1.72,32.67,32.67,0,0,1,11.7,5.55,27.31,27.31,0,0,1,8,10,39.58,39.58,0,0,1,3.45,15.23h-3A34.07,34.07,0,0,0,425.45,53.22Z" transform="translate(0 -16.25)"/><path class="c" d="M564.73,120.12a47.13,47.13,0,0,1-9.68,14,42.57,42.57,0,0,1-14,9.15,48.13,48.13,0,0,1-18.3,3.3,46.08,46.08,0,0,1-19.58-4.13,45.19,45.19,0,0,1-15.3-11.4,52.91,52.91,0,0,1-10-17.4,65.58,65.58,0,0,1-3.6-22.12,75,75,0,0,1,2.77-19.88,56.21,56.21,0,0,1,8.78-18.37,46.39,46.39,0,0,1,15.6-13.5q9.58-5.25,23.25-5.25a45.75,45.75,0,0,1,18.6,3.52,43.74,43.74,0,0,1,13.27,8.85,38.48,38.48,0,0,1,8,11.33,29.18,29.18,0,0,1,2.85,11h-3A29.12,29.12,0,0,0,561,57.72,35.75,35.75,0,0,0,552.8,47.6a41.72,41.72,0,0,0-12.3-7.28,43.5,43.5,0,0,0-15.82-2.77q-13.2,0-22.28,5.32a45.49,45.49,0,0,0-14.62,13.35,55.11,55.11,0,0,0-8,17.48,70.54,70.54,0,0,0-2.47,17.85,64.24,64.24,0,0,0,3,19.65,50,50,0,0,0,8.85,16.65,44.25,44.25,0,0,0,14.32,11.55,41.63,41.63,0,0,0,19.28,4.35A45,45,0,0,0,540,140.6a40,40,0,0,0,13.2-8.7,44.09,44.09,0,0,0,9-13.2,60,60,0,0,0,4.65-16.5h3A63.9,63.9,0,0,1,564.73,120.12Z" transform="translate(0 -16.25)"/><path class="c" d="M614.38,37.1V144.2h-3V37.1Z" transform="translate(0 -16.25)"/><path class="c" d="M729.05,53.22a25.75,25.75,0,0,0-7.35-9.15,28.47,28.47,0,0,0-10.88-5,58.17,58.17,0,0,0-13.5-1.5,62.65,62.65,0,0,0-11.55,1.12,33.63,33.63,0,0,0-10.87,4,24.22,24.22,0,0,0-8,7.57q-3.15,4.72-3.15,11.93T667,73.7a24.19,24.19,0,0,0,8.4,7A48.66,48.66,0,0,0,687.12,85q6.6,1.5,13.5,3.15,7.5,2,14.18,3.75a44.84,44.84,0,0,1,11.62,4.8,22.64,22.64,0,0,1,7.88,7.95q2.93,5,2.92,13.35a24.56,24.56,0,0,1-3.3,13,27.85,27.85,0,0,1-8.7,8.92,37.47,37.47,0,0,1-12.15,5.1,59.88,59.88,0,0,1-13.65,1.58,64.15,64.15,0,0,1-16.87-2.1,35.56,35.56,0,0,1-13.35-6.68,30,30,0,0,1-8.7-11.77q-3.07-7.2-2.93-17.4h3a41.36,41.36,0,0,0,2.85,16.27,27.7,27.7,0,0,0,8,10.88,32.11,32.11,0,0,0,12.3,6.07,61,61,0,0,0,15.67,1.88A55.43,55.43,0,0,0,712,142.32a35,35,0,0,0,11.17-4.57,25.35,25.35,0,0,0,8-8.1,22,22,0,0,0,3.07-11.85q0-8.1-3.52-12.83a25.43,25.43,0,0,0-9-7.5,50.56,50.56,0,0,0-12.15-4.2q-6.67-1.41-12.83-2.92-6.45-1.5-12.9-3.15a47.33,47.33,0,0,1-11.62-4.58,23.45,23.45,0,0,1-8.33-7.8q-3.15-4.86-3.15-12.67T664,48.87a25.28,25.28,0,0,1,8.55-8.47,37.46,37.46,0,0,1,11.78-4.5,63.85,63.85,0,0,1,13-1.35A58.89,58.89,0,0,1,712,36.27a32.67,32.67,0,0,1,11.7,5.55,27.29,27.29,0,0,1,8,10,39.58,39.58,0,0,1,3.45,15.23h-3A34.07,34.07,0,0,0,729.05,53.22Z" transform="translate(0 -16.25)"/><path class="c" d="M850.7,53.22a25.75,25.75,0,0,0-7.35-9.15,28.47,28.47,0,0,0-10.88-5,58.17,58.17,0,0,0-13.5-1.5,62.65,62.65,0,0,0-11.55,1.12,33.63,33.63,0,0,0-10.87,4,24.22,24.22,0,0,0-8,7.57q-3.15,4.72-3.15,11.93T788.6,73.7a24.19,24.19,0,0,0,8.4,7A48.66,48.66,0,0,0,808.77,85q6.6,1.5,13.5,3.15,7.5,2,14.18,3.75a44.84,44.84,0,0,1,11.62,4.8A22.64,22.64,0,0,1,856,104.6q2.92,5,2.92,13.35a24.56,24.56,0,0,1-3.3,13,27.85,27.85,0,0,1-8.7,8.92,37.47,37.47,0,0,1-12.15,5.1,59.88,59.88,0,0,1-13.65,1.58,64.15,64.15,0,0,1-16.87-2.1,35.56,35.56,0,0,1-13.35-6.68,30,30,0,0,1-8.7-11.77q-3.07-7.2-2.93-17.4h3a41.36,41.36,0,0,0,2.85,16.27,27.7,27.7,0,0,0,8,10.88,32.11,32.11,0,0,0,12.3,6.07,61,61,0,0,0,15.67,1.88,55.43,55.43,0,0,0,12.53-1.43,35,35,0,0,0,11.17-4.57,25.35,25.35,0,0,0,8-8.1,22,22,0,0,0,3.07-11.85q0-8.1-3.52-12.83a25.43,25.43,0,0,0-9-7.5,50.56,50.56,0,0,0-12.15-4.2q-6.68-1.41-12.83-2.92-6.45-1.5-12.9-3.15a47.33,47.33,0,0,1-11.62-4.58,23.45,23.45,0,0,1-8.33-7.8q-3.15-4.86-3.15-12.67t3.3-13.28a25.28,25.28,0,0,1,8.55-8.47A37.46,37.46,0,0,1,806,35.9a63.85,63.85,0,0,1,13-1.35,58.89,58.89,0,0,1,14.63,1.72,32.67,32.67,0,0,1,11.7,5.55,27.29,27.29,0,0,1,8,10,39.58,39.58,0,0,1,3.45,15.23h-3A34.07,34.07,0,0,0,850.7,53.22Z" transform="translate(0 -16.25)"/><path class="b" d="M19,145.44c8.53.62,20-1,35-5,29.16-7.78,44.44-37.41,51-48,11.3-18.25,13-23,25-37,6.95-8.11,17-14,25-14" transform="translate(0 -16.25)"/><path class="b" d="M291,145.44c-8.53.62-20-1-35-5-29.16-7.78-44.44-37.41-51-48-11.3-18.25-13-23-25-37-6.95-8.11-17-14-25-14" transform="translate(0 -16.25)"/><line class="d" x1="154" y1="1.75" x2="154" y2="145.25"/><line class="d" x1="40" y1="1.75" x2="41" y2="47.25"/><path class="d" d="M16.5,148.5" transform="translate(0 -16.25)"/><path class="d" d="M16.5,18" transform="translate(0 -16.25)"/><line class="d" x1="18.25" y1="24.25" x2="155.5" y2="24.25"/><line class="d" x1="64" y1="1.75" x2="64" y2="47.25"/><line class="d" x1="18.25" y1="48.25" x2="155.5" y2="48.25"/><line class="d" x1="17.25" y1="0.25" x2="1077" y2="0.25"/><circle class="e" cx="47.86" cy="29.35" r="12.07"/><circle class="f" cx="33.14" cy="29.35" r="12.07"/><circle class="g" cx="40.25" cy="16.15" r="12.07"/><line class="h" y1="129" x2="1097" y2="129"/><line class="d" x1="16" y1="2" x2="16" y2="145.5"/><line class="d" x1="939.75" y1="2" x2="939.75" y2="145.5"/><line class="d" x1="1078.25" y1="2.25" x2="1075.75" y2="145.25"/><line class="d" x1="17.25" y1="72.25" x2="1077" y2="72.25"/></g></svg>