<svg xmlns="http://www.w3.org/2000/svg" viewBox="0 0 213 205"><defs><style>.a{isolation:isolate;}.b,.f,.g{fill:none;}.b{stroke:#4d4d4d;stroke-dasharray:3;}.b,.c,.d,.e,.f,.g{stroke-miterlimit:10;}.b,.c,.d,.e{stroke-width:0.5px;}.c{fill:#ffdd15;}.c,.d,.e{stroke:#231f20;mix-blend-mode:multiply;}.d{fill:#eb008b;}.e{fill:#00adee;}.f{stroke:#3fa9f5;stroke-width:2px;}.g{stroke:#000;stroke-width:4px;}.h{fill:#1b1464;}</style></defs><title>Artboard 1</title><g class="a"><line class="b" x1="36.25" y1="87.5" x2="174" y2="87.5"/><line class="b" x1="173" y1="17" x2="173" y2="160.5"/><line class="b" x1="59" y1="17" x2="60" y2="62.5"/><line class="b" x1="37.25" y1="39.5" x2="174.5" y2="39.5"/><line class="b" x1="83" y1="17" x2="83" y2="62.5"/><line class="b" x1="37.25" y1="63.5" x2="174.5" y2="63.5"/><line class="b" x1="36.25" y1="15.5" x2="174" y2="15.5"/><circle class="c" cx="66.86" cy="44.6" r="12.07"/><circle class="d" cx="52.14" cy="44.6" r="12.07"/><circle class="e" cx="59.25" cy="31.4" r="12.07"/><line class="b" x1="35" y1="17.25" x2="35" y2="160.75"/><path class="f" d="M0,145.59c7.07-.45,14.93.14,25.94-1.48,24.58-3.61,35.72-41.29,40.87-52.23C75.69,73,77,68.12,86.46,53.65,91.92,45.28,100.22,39,106.5,39"/><path class="f" d="M212.61,145.59c-7.07-.45-14.93.14-25.93-1.48C162.09,140.5,151,102.82,145.8,91.88,136.92,73,135.59,68.12,126.15,53.65,120.69,45.28,112.4,39,106.11,39"/><line class="g" y1="146" x2="213" y2="146"/><line class="b" x1="106.75" y1="17.25" x2="106.5" y2="152.5"/><path d="M105.1,156.43a2.07,2.07,0,0,1,.06-.5,2.13,2.13,0,0,1,.13-.45,1.25,1.25,0,0,1,.25-.38,1.11,1.11,0,0,1,.39-.26,1.85,1.85,0,0,1,1.14,0,1.11,1.11,0,0,1,.39.26,1.25,1.25,0,0,1,.25.38,2.13,2.13,0,0,1,.13.45,2.07,2.07,0,0,1,.06.5c0,.16,0,.33,0,.48s0,.32,0,.49a2,2,0,0,1-.06.49,2.13,2.13,0,0,1-.13.45,1.39,1.39,0,0,1-.25.38,1,1,0,0,1-.39.25,1.67,1.67,0,0,1-1.14,0,1,1,0,0,1-.39-.25,1.39,1.39,0,0,1-.25-.38,2.13,2.13,0,0,1-.13-.45,2,2,0,0,1-.06-.49c0-.17,0-.33,0-.49S105.09,156.59,105.1,156.43Zm.54,1a2.43,2.43,0,0,0,.09.56,1.16,1.16,0,0,0,.27.44.78.78,0,0,0,1,0,1.16,1.16,0,0,0,.27-.44,2.43,2.43,0,0,0,.09-.56c0-.19,0-.37,0-.53s0-.22,0-.35a2.53,2.53,0,0,0,0-.38,2.41,2.41,0,0,0-.07-.37,1.28,1.28,0,0,0-.15-.31.88.88,0,0,0-.25-.22.74.74,0,0,0-1,.22,1,1,0,0,0-.16.31,2.41,2.41,0,0,0-.07.37,2.53,2.53,0,0,0,0,.38c0,.13,0,.24,0,.35S105.63,157.25,105.64,157.44Z"/><path class="h" d="M29.46,183.45a4.51,4.51,0,0,0,.24,1.76.89.89,0,0,0,.91.5,2,2,0,0,0,.65-.09,4.12,4.12,0,0,0,.72-.37.21.21,0,0,1,.24,0,.63.63,0,0,1,.21.19,1,1,0,0,1,.13.29.28.28,0,0,1-.07.27,4.21,4.21,0,0,1-3.32,1.69,2.88,2.88,0,0,1-1.78-.55,3.62,3.62,0,0,1-1.1-1.32q-.08-.18-.21,0a8.29,8.29,0,0,1-2.18,1.36,7.85,7.85,0,0,1-3.11.54,4.33,4.33,0,0,1-3.17-1.09,4.17,4.17,0,0,1-1.12-3.12,4.38,4.38,0,0,1,2.41-4,14.39,14.39,0,0,1,7-1.38c.05,0,.09-.06.11-.18a6.09,6.09,0,0,0,0-.83v-1a9,9,0,0,0-.15-1.69,4.38,4.38,0,0,0-.48-1.39,2.48,2.48,0,0,0-1-.94,3.15,3.15,0,0,0-1.51-.34,4.06,4.06,0,0,0-2.16.52,1.56,1.56,0,0,0-.83,1.35,1.37,1.37,0,0,0,.26.78,1.43,1.43,0,0,1,.25.77,1.32,1.32,0,0,1-.51,1,1.68,1.68,0,0,1-1.22.47,1.67,1.67,0,0,1-1.39-.52,2,2,0,0,1-.41-1.28,3.23,3.23,0,0,1,.5-1.71,4.62,4.62,0,0,1,1.37-1.38,7.35,7.35,0,0,1,2-.92,8.31,8.31,0,0,1,2.41-.34,7.05,7.05,0,0,1,4.54,1.33c1.1.89,1.65,2.36,1.65,4.43Zm-3.38-3.57a1.92,1.92,0,0,0,0-.48q0-.09-.18-.09a9,9,0,0,0-4.37,1.24,3,3,0,0,0-1.42,2.54,3,3,0,0,0,.53,1.81,2.08,2.08,0,0,0,1.81.74,5.36,5.36,0,0,0,1.74-.32,5.23,5.23,0,0,0,1.64-.94.83.83,0,0,0,.29-.57Z"/><path class="h" d="M43.36,169.08c0-1,0-1.86,0-2.48a3.53,3.53,0,0,0-.27-1.42,1.23,1.23,0,0,0-.74-.67,6.53,6.53,0,0,0-1.44-.29.29.29,0,0,1-.27-.18,1,1,0,0,1-.1-.36.59.59,0,0,1,.07-.36.31.31,0,0,1,.3-.18c.7,0,1.48-.12,2.36-.21a15.78,15.78,0,0,0,2.65-.54c.33-.1.56-.08.66.05a.83.83,0,0,1,.2.41v10.34s0,.07,0,.07a.14.14,0,0,0,.11-.07,6.56,6.56,0,0,1,2-1.88,5.68,5.68,0,0,1,3.15-.82,5.52,5.52,0,0,1,2.73.66,6.18,6.18,0,0,1,2,1.77A8,8,0,0,1,58,175.45a11,11,0,0,1,.41,3,10.53,10.53,0,0,1-.74,4.12,7.87,7.87,0,0,1-2,2.88,8.33,8.33,0,0,1-2.91,1.7,11,11,0,0,1-3.49.55,23.47,23.47,0,0,1-2.7-.16,14.25,14.25,0,0,1-3.17-.77Zm3.38,14.65a1.58,1.58,0,0,0,.25.65,3.38,3.38,0,0,0,.71.83,4.57,4.57,0,0,0,1.08.7,3,3,0,0,0,1.38.31,3.67,3.67,0,0,0,2.16-.6A4,4,0,0,0,53.69,184a8.09,8.09,0,0,0,.7-2.35,19.9,19.9,0,0,0,.06-5.17,6.72,6.72,0,0,0-.53-1.93,3.13,3.13,0,0,0-1.06-1.31,3.09,3.09,0,0,0-1.8-.49,4.16,4.16,0,0,0-1.73.36A5.47,5.47,0,0,0,48,174a3.73,3.73,0,0,0-.9,1.11,2.35,2.35,0,0,0-.33,1.08Z"/><path class="h" d="M79.39,171a9,9,0,0,0-.2,1,7.86,7.86,0,0,0-.09,1.22c0,.46,0,.93,0,1.42s0,.87,0,1.14q0,.1-.15.18a.8.8,0,0,1-.32.09.66.66,0,0,1-.32,0,.25.25,0,0,1-.18-.16,6.38,6.38,0,0,0-1.3-2.93,3.62,3.62,0,0,0-2.88-1,3.47,3.47,0,0,0-2.2.67,2.13,2.13,0,0,0-.86,1.78,1.66,1.66,0,0,0,.72,1.44,8.29,8.29,0,0,0,1.91.93l1.2.45,1.14.45q.93.44,1.74.9a6.49,6.49,0,0,1,1.41,1.1A5.13,5.13,0,0,1,80,181a4.57,4.57,0,0,1,.35,1.84,4.3,4.3,0,0,1-.58,2.29,4.62,4.62,0,0,1-1.48,1.47,6.56,6.56,0,0,1-2,.81,10.45,10.45,0,0,1-2.27.25,11.82,11.82,0,0,1-2.09-.21,9.17,9.17,0,0,1-2-.61.5.5,0,0,0-.45.07.72.72,0,0,0-.31.54c0,.07,0,.12-.16.14a1.27,1.27,0,0,1-.34,0,.75.75,0,0,1-.29-.06.17.17,0,0,1-.14-.16,5.62,5.62,0,0,1,.07-.79,6.41,6.41,0,0,0,.07-.94c0-.28,0-.6,0-1s-.08-.69-.11-1-.07-.63-.09-.9a5.22,5.22,0,0,1,0-.57.23.23,0,0,1,.15-.22.8.8,0,0,1,.32-.09.78.78,0,0,1,.34,0,.26.26,0,0,1,.2.2,8.52,8.52,0,0,0,.65,1.83,4.32,4.32,0,0,0,1,1.33,3.83,3.83,0,0,0,1.44.81,6.7,6.7,0,0,0,2,.27,3.05,3.05,0,0,0,2.11-.72,2.55,2.55,0,0,0,.81-2,2.22,2.22,0,0,0-.81-1.82,9.18,9.18,0,0,0-1.89-1.17l-1-.43-1.06-.43-1.57-.67a5.49,5.49,0,0,1-1.36-.85,3.58,3.58,0,0,1-1-1.26,4.3,4.3,0,0,1-.36-1.87,4.1,4.1,0,0,1,.56-2.19,4.47,4.47,0,0,1,1.44-1.46,6.44,6.44,0,0,1,2-.81,9.24,9.24,0,0,1,2.13-.25,6.05,6.05,0,0,1,1.78.23,6.94,6.94,0,0,1,1.71.85.51.51,0,0,0,.38,0c.15-.06.28-.26.38-.6a.25.25,0,0,1,.21-.18,1.09,1.09,0,0,1,.36,0,.9.9,0,0,1,.33.09C79.38,170.89,79.42,171,79.39,171Z"/><path class="h" d="M93.43,178.51a10,10,0,0,0,.33,2.61,6.59,6.59,0,0,0,1,2.2,4.7,4.7,0,0,0,1.71,1.51,5.27,5.27,0,0,0,2.52.56,15.31,15.31,0,0,0,2.46-.2,4,4,0,0,0,2-.92.32.32,0,0,1,.32-.09.92.92,0,0,1,.32.18.62.62,0,0,1,.2.31.33.33,0,0,1,0,.32,6,6,0,0,1-2.77,2.15,11.4,11.4,0,0,1-3.75.55,9.91,9.91,0,0,1-2.88-.43,7,7,0,0,1-4.5-4.12,10.55,10.55,0,0,1-.72-4.16,9.27,9.27,0,0,1,.6-3.33A7.5,7.5,0,0,1,92,173a8.29,8.29,0,0,1,2.79-1.8,10.21,10.21,0,0,1,3.81-.66,8.2,8.2,0,0,1,2,.25,6.17,6.17,0,0,1,1.76.74,3.85,3.85,0,0,1,1.24,1.2,2.93,2.93,0,0,1,.47,1.62,2.09,2.09,0,0,1-.43,1.23,1.62,1.62,0,0,1-1.37.57,1.92,1.92,0,0,1-1.24-.39,1.4,1.4,0,0,1-.49-1.16,1.23,1.23,0,0,1,.27-.82,1,1,0,0,0,.27-.62c0-.43-.29-.76-.86-1a5.36,5.36,0,0,0-1.91-.34,4.21,4.21,0,0,0-2.29.58,4.7,4.7,0,0,0-1.51,1.53,6.45,6.45,0,0,0-.84,2.16A11.8,11.8,0,0,0,93.43,178.51Z"/><path class="h" d="M118.85,183c0,.6,0,1.1,0,1.51a2.41,2.41,0,0,0,.26,1,1.4,1.4,0,0,0,.66.61,4.46,4.46,0,0,0,1.28.32.47.47,0,0,1,.32.2.63.63,0,0,1,.11.38.55.55,0,0,1-.11.34.35.35,0,0,1-.32.16,15.38,15.38,0,0,1-1.69-.12,16.69,16.69,0,0,0-2.13-.13,18.62,18.62,0,0,0-2.25.13,19.3,19.3,0,0,1-2.1.12.33.33,0,0,1-.29-.16.62.62,0,0,1-.11-.34.7.7,0,0,1,.11-.38.47.47,0,0,1,.32-.2,5.73,5.73,0,0,0,1.46-.32,1.55,1.55,0,0,0,.76-.59,2.21,2.21,0,0,0,.27-.94c0-.37,0-.83,0-1.39V177.4c0-1,0-1.86-.07-2.49a3.87,3.87,0,0,0-.32-1.42,1.34,1.34,0,0,0-.76-.66,6.41,6.41,0,0,0-1.37-.29.35.35,0,0,1-.32-.18.64.64,0,0,1,0-.72.35.35,0,0,1,.32-.18c.24,0,.54-.05.89-.07l1.09-.09,1.17-.15c.4-.06.75-.12,1.07-.2a3.17,3.17,0,0,0,.63-.16,1.08,1.08,0,0,1,.37-.09.57.57,0,0,1,.56.25,1,1,0,0,1,.13.47ZM116.94,167a2.31,2.31,0,0,1-1.55-.56,1.75,1.75,0,0,1-.65-1.38,1.87,1.87,0,0,1,.62-1.41,2.12,2.12,0,0,1,1.51-.57,1.85,1.85,0,0,1,1.42.59,2,2,0,0,1,.56,1.42,1.86,1.86,0,0,1-.54,1.35A1.84,1.84,0,0,1,116.94,167Z"/><path class="h" d="M142,171a9,9,0,0,0-.2,1,7.86,7.86,0,0,0-.09,1.22c0,.46,0,.93,0,1.42s0,.87,0,1.14c0,.07,0,.13-.14.18a.85.85,0,0,1-.32.09.72.72,0,0,1-.33,0,.29.29,0,0,1-.18-.16,6.27,6.27,0,0,0-1.29-2.93,3.62,3.62,0,0,0-2.88-1,3.47,3.47,0,0,0-2.2.67,2.11,2.11,0,0,0-.86,1.78,1.66,1.66,0,0,0,.72,1.44,8.2,8.2,0,0,0,1.9.93l1.21.45,1.13.45c.63.29,1.21.59,1.75.9a6.2,6.2,0,0,1,1.4,1.1,4.94,4.94,0,0,1,.94,1.42,4.58,4.58,0,0,1,.34,1.84,4.3,4.3,0,0,1-.57,2.29,4.62,4.62,0,0,1-1.48,1.47,6.56,6.56,0,0,1-2,.81,10.52,10.52,0,0,1-2.27.25,11.82,11.82,0,0,1-2.09-.21,9,9,0,0,1-2-.61.49.49,0,0,0-.45.07.72.72,0,0,0-.31.54c0,.07,0,.12-.16.14a1.27,1.27,0,0,1-.34,0,.72.72,0,0,1-.29-.06c-.1,0-.15-.09-.15-.16a6,6,0,0,1,.08-.79,8.18,8.18,0,0,0,.07-.94,8.49,8.49,0,0,0-.06-1c0-.35-.07-.69-.1-1s-.07-.63-.09-.9a5.22,5.22,0,0,1,0-.57.24.24,0,0,1,.14-.22.9.9,0,0,1,.33-.09.78.78,0,0,1,.34,0,.27.27,0,0,1,.2.2,8.52,8.52,0,0,0,.65,1.83,4.32,4.32,0,0,0,1,1.33,3.75,3.75,0,0,0,1.44.81,6.7,6.7,0,0,0,2,.27,3.07,3.07,0,0,0,2.11-.72,2.55,2.55,0,0,0,.81-2,2.22,2.22,0,0,0-.81-1.82,9.18,9.18,0,0,0-1.89-1.17l-1-.43-1.06-.43-1.57-.67a5.75,5.75,0,0,1-1.37-.85,3.68,3.68,0,0,1-1-1.26,4.3,4.3,0,0,1-.36-1.87,4.1,4.1,0,0,1,.56-2.19,4.47,4.47,0,0,1,1.44-1.46,6.44,6.44,0,0,1,2-.81,9.22,9.22,0,0,1,2.12-.25,6.08,6.08,0,0,1,1.79.23,7.11,7.11,0,0,1,1.71.85.48.48,0,0,0,.37,0c.16-.06.29-.26.38-.6a.28.28,0,0,1,.22-.18,1.09,1.09,0,0,1,.36,0,.8.8,0,0,1,.32.09C142,170.89,142,171,142,171Z"/><path class="h" d="M163.42,171a7.08,7.08,0,0,0-.2,1,7.86,7.86,0,0,0-.09,1.22c0,.46,0,.93,0,1.42s0,.87,0,1.14c0,.07,0,.13-.14.18a.9.9,0,0,1-.33.09.66.66,0,0,1-.32,0,.25.25,0,0,1-.18-.16,6.38,6.38,0,0,0-1.3-2.93,3.62,3.62,0,0,0-2.88-1,3.42,3.42,0,0,0-2.19.67,2.11,2.11,0,0,0-.87,1.78,1.66,1.66,0,0,0,.72,1.44,8.29,8.29,0,0,0,1.91.93l1.21.45,1.13.45c.62.29,1.21.59,1.75.9a6.43,6.43,0,0,1,1.4,1.1,4.94,4.94,0,0,1,.94,1.42,4.75,4.75,0,0,1,.34,1.84,4.21,4.21,0,0,1-.58,2.29,4.49,4.49,0,0,1-1.47,1.47,6.62,6.62,0,0,1-2.06.81,10.36,10.36,0,0,1-2.26.25,11.73,11.73,0,0,1-2.09-.21,9.27,9.27,0,0,1-2-.61.5.5,0,0,0-.45.07.72.72,0,0,0-.3.54c0,.07-.06.12-.17.14a1.22,1.22,0,0,1-.34,0,.79.79,0,0,1-.29-.06.18.18,0,0,1-.14-.16,5.62,5.62,0,0,1,.07-.79,6.41,6.41,0,0,0,.07-.94,8.3,8.3,0,0,0-.05-1c0-.35-.07-.69-.11-1s-.06-.63-.09-.9,0-.45,0-.57a.22.22,0,0,1,.14-.22.85.85,0,0,1,.32-.09.82.82,0,0,1,.35,0,.26.26,0,0,1,.19.2,9.09,9.09,0,0,0,.65,1.83,4.67,4.67,0,0,0,1,1.33,3.91,3.91,0,0,0,1.44.81,6.77,6.77,0,0,0,2,.27,3,3,0,0,0,2.1-.72,2.55,2.55,0,0,0,.81-2,2.22,2.22,0,0,0-.81-1.82,9.18,9.18,0,0,0-1.89-1.17l-1-.43-1.07-.43c-.52-.22-1-.44-1.56-.67a5.56,5.56,0,0,1-1.37-.85,3.56,3.56,0,0,1-.95-1.26,4.3,4.3,0,0,1-.36-1.87,4.09,4.09,0,0,1,.55-2.19,4.67,4.67,0,0,1,1.44-1.46,6.49,6.49,0,0,1,2-.81,9.15,9.15,0,0,1,2.12-.25,6,6,0,0,1,1.78.23,6.77,6.77,0,0,1,1.71.85.51.51,0,0,0,.38,0c.16-.06.28-.26.38-.6a.25.25,0,0,1,.21-.18,1.09,1.09,0,0,1,.36,0,.9.9,0,0,1,.33.09C163.4,170.89,163.44,171,163.42,171Z"/><path class="h" d="M186.64,183.45a4.56,4.56,0,0,0,.23,1.76.91.91,0,0,0,.92.5,2,2,0,0,0,.65-.09,5,5,0,0,0,.72-.37.19.19,0,0,1,.23,0,.66.66,0,0,1,.22.19.74.74,0,0,1,.12.29.26.26,0,0,1-.07.27,4.19,4.19,0,0,1-3.31,1.69,2.86,2.86,0,0,1-1.78-.55,3.53,3.53,0,0,1-1.1-1.32c-.05-.12-.12-.13-.22,0a8.13,8.13,0,0,1-2.18,1.36,7.78,7.78,0,0,1-3.11.54,4.34,4.34,0,0,1-3.17-1.09,4.2,4.2,0,0,1-1.11-3.12,4.36,4.36,0,0,1,2.41-4,14.39,14.39,0,0,1,7-1.38s.08-.06.11-.18a6.81,6.81,0,0,0,0-.83v-1a10,10,0,0,0-.14-1.69,4.39,4.39,0,0,0-.49-1.39,2.45,2.45,0,0,0-1-.94,3.15,3.15,0,0,0-1.51-.34,4.06,4.06,0,0,0-2.16.52,1.54,1.54,0,0,0-.83,1.35,1.36,1.36,0,0,0,.25.78,1.24,1.24,0,0,1-.25,1.74,1.72,1.72,0,0,1-1.23.47,1.65,1.65,0,0,1-1.38-.52,2,2,0,0,1-.42-1.28,3.16,3.16,0,0,1,.51-1.71,4.4,4.4,0,0,1,1.37-1.38,7.15,7.15,0,0,1,2-.92,8.36,8.36,0,0,1,2.41-.34,7,7,0,0,1,4.54,1.33c1.1.89,1.66,2.36,1.66,4.43Zm-3.39-3.57a2.16,2.16,0,0,0,0-.48.18.18,0,0,0-.18-.09,9.07,9.07,0,0,0-4.38,1.24,3.09,3.09,0,0,0-.88,4.35,2.06,2.06,0,0,0,1.8.74,5.46,5.46,0,0,0,1.75-.32,5.18,5.18,0,0,0,1.63-.94.79.79,0,0,0,.29-.57Z"/></g></svg>