<svg xmlns="http://www.w3.org/2000/svg" viewBox="0 0 1097 167"><defs><style>.a{isolation:isolate;}.b,.f,.h{fill:none;}.b{stroke:#4d4d4d;stroke-dasharray:3;}.b,.c,.d,.e,.f,.h{stroke-miterlimit:10;}.b,.c,.d,.e{stroke-width:0.5px;}.c{fill:#ffdd15;}.c,.d,.e{stroke:#231f20;mix-blend-mode:multiply;}.d{fill:#eb008b;}.e{fill:#00adee;}.f{stroke:#3fa9f5;stroke-width:2px;}.g{fill:#0071bc;}.h{stroke:#000;stroke-width:4px;}</style></defs><title>Artboard 1</title><g class="a"><line class="b" x1="939.75" y1="18.25" x2="939.5" y2="154.5"/><line class="b" x1="17.25" y1="88.5" x2="1077" y2="88.5"/><line class="b" x1="154" y1="18" x2="154.5" y2="153.5"/><line class="b" x1="40" y1="18" x2="41" y2="63.5"/><line class="b" x1="18.25" y1="40.5" x2="155.5" y2="40.5"/><line class="b" x1="64" y1="18" x2="64" y2="63.5"/><line class="b" x1="18.25" y1="64.5" x2="155.5" y2="64.5"/><line class="b" x1="17.25" y1="16.5" x2="1077" y2="16.5"/><circle class="c" cx="47.86" cy="45.6" r="12.07"/><circle class="d" cx="33.14" cy="45.6" r="12.07"/><circle class="e" cx="40.25" cy="32.4" r="12.07"/><line class="b" x1="16" y1="18.25" x2="16" y2="161.75"/><line class="b" x1="1078.25" y1="18.5" x2="1075.75" y2="161.5"/><path class="f" d="M58,146.59c6.38-.45,13.46.14,23.38-1.48,22.15-3.61,32.19-41.29,36.83-52.23,8-18.86,9.21-23.76,17.71-38.23C140.84,46.28,148.32,40,154,40"/><path class="f" d="M249.61,146.59c-6.37-.45-13.46.14-23.37-1.48-22.16-3.61-32.19-41.29-36.84-52.23-8-18.86-9.21-23.76-17.71-38.23C166.77,46.28,159.3,40,153.63,40"/><path class="g" d="M429.63,53.22a25.75,25.75,0,0,0-7.35-9.15,28.47,28.47,0,0,0-10.88-5,58.17,58.17,0,0,0-13.5-1.5,62.65,62.65,0,0,0-11.55,1.12,33.63,33.63,0,0,0-10.87,4,24.22,24.22,0,0,0-8,7.57q-3.15,4.72-3.15,11.93t3.23,11.55a24.19,24.19,0,0,0,8.4,7A48.66,48.66,0,0,0,387.7,85q6.6,1.5,13.5,3.15,7.5,2,14.18,3.75A44.84,44.84,0,0,1,427,96.65a22.64,22.64,0,0,1,7.88,7.95q2.92,5,2.92,13.35a24.56,24.56,0,0,1-3.3,13,27.85,27.85,0,0,1-8.7,8.92,37.47,37.47,0,0,1-12.15,5.1A59.88,59.88,0,0,1,400,146.6a64.15,64.15,0,0,1-16.87-2.1,35.56,35.56,0,0,1-13.35-6.68,30,30,0,0,1-8.7-11.77q-3.07-7.2-2.93-17.4h3A41.36,41.36,0,0,0,364,124.92a27.7,27.7,0,0,0,8,10.88,32.11,32.11,0,0,0,12.3,6.07A61,61,0,0,0,400,143.75a55.43,55.43,0,0,0,12.53-1.43,35,35,0,0,0,11.17-4.57,25.35,25.35,0,0,0,8-8.1,22,22,0,0,0,3.07-11.85q0-8.1-3.52-12.83a25.43,25.43,0,0,0-9-7.5,50.56,50.56,0,0,0-12.15-4.2q-6.67-1.41-12.83-2.92-6.45-1.5-12.9-3.15a47.33,47.33,0,0,1-11.62-4.58,23.45,23.45,0,0,1-8.33-7.8Q361.3,70,361.3,62.15t3.3-13.28a25.28,25.28,0,0,1,8.55-8.47,37.46,37.46,0,0,1,11.78-4.5,63.85,63.85,0,0,1,13-1.35,58.89,58.89,0,0,1,14.63,1.72,32.67,32.67,0,0,1,11.7,5.55,27.29,27.29,0,0,1,8,10A39.58,39.58,0,0,1,435.7,67.1h-3A34.07,34.07,0,0,0,429.63,53.22Z"/><path class="g" d="M568.9,120.12a46.92,46.92,0,0,1-9.67,14,42.61,42.61,0,0,1-14,9.15,48.13,48.13,0,0,1-18.3,3.3,46.07,46.07,0,0,1-19.57-4.13,45.19,45.19,0,0,1-15.3-11.4,52.76,52.76,0,0,1-10-17.4,65.58,65.58,0,0,1-3.6-22.12,75,75,0,0,1,2.78-19.88A56.18,56.18,0,0,1,490,53.3a46.58,46.58,0,0,1,15.6-13.5q9.6-5.25,23.25-5.25a45.72,45.72,0,0,1,18.6,3.52,43.79,43.79,0,0,1,13.28,8.85,38.44,38.44,0,0,1,8,11.33,29.18,29.18,0,0,1,2.85,11h-3a29,29,0,0,0-3.45-11.48A35.54,35.54,0,0,0,557,47.6a41.72,41.72,0,0,0-12.3-7.28,43.51,43.51,0,0,0-15.83-2.77q-13.2,0-22.27,5.32A45.53,45.53,0,0,0,492,56.22a55.09,55.09,0,0,0-8,17.48,70.58,70.58,0,0,0-2.48,17.85,64.55,64.55,0,0,0,3,19.65,50.19,50.19,0,0,0,8.85,16.65,44.29,44.29,0,0,0,14.33,11.55,41.59,41.59,0,0,0,19.27,4.35,44.94,44.94,0,0,0,17.25-3.15,39.94,39.94,0,0,0,13.2-8.7,44.09,44.09,0,0,0,9-13.2A59.28,59.28,0,0,0,571,102.2h3A63.57,63.57,0,0,1,568.9,120.12Z"/><path class="g" d="M618.55,37.1V144.2h-3V37.1Z"/><path class="g" d="M733.22,53.22a25.83,25.83,0,0,0-7.34-9.15,28.54,28.54,0,0,0-10.88-5,58.17,58.17,0,0,0-13.5-1.5A62.65,62.65,0,0,0,690,38.67a33.68,33.68,0,0,0-10.88,4,24.19,24.19,0,0,0-8,7.57q-3.15,4.72-3.15,11.93t3.22,11.55a24.14,24.14,0,0,0,8.41,7A48.51,48.51,0,0,0,691.3,85q6.6,1.5,13.5,3.15,7.5,2,14.17,3.75a44.91,44.91,0,0,1,11.63,4.8,22.53,22.53,0,0,1,7.87,7.95q2.94,5,2.93,13.35a24.56,24.56,0,0,1-3.3,13,27.85,27.85,0,0,1-8.7,8.92,37.47,37.47,0,0,1-12.15,5.1,59.88,59.88,0,0,1-13.65,1.58,64.28,64.28,0,0,1-16.88-2.1,35.44,35.44,0,0,1-13.34-6.68,30,30,0,0,1-8.71-11.77q-3.07-7.2-2.92-17.4h3a41.36,41.36,0,0,0,2.85,16.27,27.78,27.78,0,0,0,8,10.88,32.09,32.09,0,0,0,12.31,6.07,61,61,0,0,0,15.67,1.88,55.35,55.35,0,0,0,12.52-1.43,35.09,35.09,0,0,0,11.18-4.57,25.32,25.32,0,0,0,8-8.1,22,22,0,0,0,3.08-11.85q0-8.1-3.52-12.83a25.61,25.61,0,0,0-9-7.5,50.8,50.8,0,0,0-12.16-4.2Q707,91.86,700.9,90.35q-6.45-1.5-12.9-3.15a47.18,47.18,0,0,1-11.62-4.58,23.45,23.45,0,0,1-8.33-7.8Q664.9,70,664.9,62.15t3.3-13.28a25.28,25.28,0,0,1,8.55-8.47,37.46,37.46,0,0,1,11.78-4.5,63.85,63.85,0,0,1,13-1.35,58.81,58.81,0,0,1,14.62,1.72,32.67,32.67,0,0,1,11.7,5.55,27.31,27.31,0,0,1,8,10A39.58,39.58,0,0,1,739.3,67.1h-3A34.07,34.07,0,0,0,733.22,53.22Z"/><path class="g" d="M854.87,53.22a25.75,25.75,0,0,0-7.35-9.15,28.42,28.42,0,0,0-10.87-5,58.17,58.17,0,0,0-13.5-1.5,62.65,62.65,0,0,0-11.55,1.12,33.68,33.68,0,0,0-10.88,4,24.19,24.19,0,0,0-8,7.57q-3.15,4.72-3.15,11.93t3.22,11.55a24.19,24.19,0,0,0,8.4,7A48.74,48.74,0,0,0,813,85q6.6,1.5,13.5,3.15,7.5,2,14.17,3.75a44.91,44.91,0,0,1,11.63,4.8,22.61,22.61,0,0,1,7.87,7.95q2.93,5,2.93,13.35a24.56,24.56,0,0,1-3.3,13,27.85,27.85,0,0,1-8.7,8.92A37.47,37.47,0,0,1,838.9,145a59.88,59.88,0,0,1-13.65,1.58,64.23,64.23,0,0,1-16.88-2.1A35.56,35.56,0,0,1,795,137.82a30,30,0,0,1-8.7-11.77q-3.08-7.2-2.92-17.4h3a41.36,41.36,0,0,0,2.85,16.27,27.68,27.68,0,0,0,8,10.88,32.11,32.11,0,0,0,12.3,6.07,61.11,61.11,0,0,0,15.68,1.88,55.35,55.35,0,0,0,12.52-1.43A35.09,35.09,0,0,0,849,137.75a25.32,25.32,0,0,0,8-8.1,22,22,0,0,0,3.08-11.85q0-8.1-3.53-12.83a25.43,25.43,0,0,0-9-7.5,50.56,50.56,0,0,0-12.15-4.2q-6.68-1.41-12.82-2.92-6.45-1.5-12.9-3.15A47.41,47.41,0,0,1,798,82.62a23.42,23.42,0,0,1-8.32-7.8q-3.15-4.86-3.15-12.67t3.3-13.28a25.28,25.28,0,0,1,8.55-8.47,37.41,37.41,0,0,1,11.77-4.5,64,64,0,0,1,13-1.35,58.81,58.81,0,0,1,14.62,1.72,32.67,32.67,0,0,1,11.7,5.55,27.31,27.31,0,0,1,8,10A39.58,39.58,0,0,1,861,67.1h-3A34.07,34.07,0,0,0,854.87,53.22Z"/><path class="g" d="M286.07,34.82a42.35,42.35,0,0,1,12.24,1.71,28.71,28.71,0,0,1,10,5.23,24.36,24.36,0,0,1,6.7,8.66,28.22,28.22,0,0,1,2.42,12.16,25.72,25.72,0,0,1-1.79,9.52,26,26,0,0,1-4.92,8,24.5,24.5,0,0,1-16.84,8v.31a30.39,30.39,0,0,1,10.37,2.11,25.51,25.51,0,0,1,14.43,14,28.65,28.65,0,0,1,2.18,11.47,30.17,30.17,0,0,1-2.73,13.18,25.94,25.94,0,0,1-7.56,9.44,34.37,34.37,0,0,1-11.62,5.69,53.26,53.26,0,0,1-14.75,1.95h-46V34.82Zm0,51.79a37.81,37.81,0,0,0,10.68-1.48,26.53,26.53,0,0,0,9-4.53A22.73,22.73,0,0,0,312,73a22.46,22.46,0,0,0,2.34-10.46,25.49,25.49,0,0,0-2.18-11,21.32,21.32,0,0,0-6-7.65,25.62,25.62,0,0,0-9-4.52,39.76,39.76,0,0,0-11.07-1.48H241.29V86.61Zm-.47,56.47a47.09,47.09,0,0,0,12.71-1.64,28.81,28.81,0,0,0,10.14-5,24.06,24.06,0,0,0,6.79-8.42,26.8,26.8,0,0,0,2.49-11.94A25.39,25.39,0,0,0,315,103.77a23.53,23.53,0,0,0-7.17-8.11,30.14,30.14,0,0,0-10.14-4.53,48.69,48.69,0,0,0-11.62-1.4H241.29v53.35Z"/><path class="f" d="M844,146.59c6.38-.45,13.46.14,23.38-1.48,22.15-3.61,32.19-41.29,36.83-52.23,8-18.86,9.21-23.76,17.71-38.23C926.84,46.28,934.32,40,940,40"/><path class="f" d="M1035.61,146.59c-6.37-.45-13.46.14-23.37-1.48-22.16-3.61-32.19-41.29-36.84-52.23-8-18.86-9.21-23.76-17.71-38.23C952.77,46.28,945.3,40,939.63,40"/><line class="h" y1="147" x2="1097" y2="147"/><path d="M153.1,157.43a2.07,2.07,0,0,1,.06-.5,2.13,2.13,0,0,1,.13-.45,1.25,1.25,0,0,1,.25-.38,1.11,1.11,0,0,1,.39-.26,1.85,1.85,0,0,1,1.14,0,1.11,1.11,0,0,1,.39.26,1.25,1.25,0,0,1,.25.38,2.13,2.13,0,0,1,.13.45,2.07,2.07,0,0,1,.06.5c0,.16,0,.33,0,.48s0,.32,0,.49a2,2,0,0,1-.06.49,2.13,2.13,0,0,1-.13.45,1.39,1.39,0,0,1-.25.38,1,1,0,0,1-.39.25,1.67,1.67,0,0,1-1.14,0,1,1,0,0,1-.39-.25,1.39,1.39,0,0,1-.25-.38,2.13,2.13,0,0,1-.13-.45,2,2,0,0,1-.06-.49c0-.17,0-.33,0-.49S153.09,157.59,153.1,157.43Zm.54,1a2.43,2.43,0,0,0,.09.56,1.16,1.16,0,0,0,.27.44.78.78,0,0,0,1,0,1.16,1.16,0,0,0,.27-.44,2.43,2.43,0,0,0,.09-.56c0-.19,0-.37,0-.53s0-.22,0-.35a2.53,2.53,0,0,0,0-.38,2.41,2.41,0,0,0-.07-.37,1.28,1.28,0,0,0-.15-.31.88.88,0,0,0-.25-.22.74.74,0,0,0-1,.22,1,1,0,0,0-.16.31,2.41,2.41,0,0,0-.07.37,2.53,2.53,0,0,0,0,.38c0,.13,0,.24,0,.35S153.63,158.25,153.64,158.44Z"/><path d="M937.59,159.08a1.45,1.45,0,0,1-1.44-1,2,2,0,0,1-.11-.65,1.91,1.91,0,0,1,.11-.64,1.42,1.42,0,0,1,.3-.52,1.29,1.29,0,0,1,.47-.36,1.47,1.47,0,0,1,.64-.13,1.57,1.57,0,0,1,.58.1,3.1,3.1,0,0,1,.51.27,5.54,5.54,0,0,1,.45.37l.41.42.4-.42a4.09,4.09,0,0,1,.44-.37,2.65,2.65,0,0,1,.5-.27,1.47,1.47,0,0,1,.56-.1,1.57,1.57,0,0,1,.63.12,1.5,1.5,0,0,1,.5.35,1.6,1.6,0,0,1,.31.52,1.91,1.91,0,0,1,.11.64,2,2,0,0,1-.1.65,1.6,1.6,0,0,1-.31.52,1.42,1.42,0,0,1-.48.35,1.51,1.51,0,0,1-.65.13,1.47,1.47,0,0,1-.56-.1,1.8,1.8,0,0,1-.5-.25,2.81,2.81,0,0,1-.44-.35,5.18,5.18,0,0,1-.41-.4l-.4.4-.44.35a2.13,2.13,0,0,1-.5.25A1.57,1.57,0,0,1,937.59,159.08Zm0-.77a1.14,1.14,0,0,0,.4-.08,1.86,1.86,0,0,0,.39-.21c.12-.09.24-.18.34-.27s.21-.2.3-.29l-.31-.29a2.77,2.77,0,0,0-.75-.51,1,1,0,0,0-.4-.09.69.69,0,0,0-.58.27,1,1,0,0,0-.21.61.87.87,0,0,0,.22.62A.78.78,0,0,0,937.59,158.31Zm3.85,0a.72.72,0,0,0,.59-.25.92.92,0,0,0,.2-.6,1,1,0,0,0-.21-.63.72.72,0,0,0-.61-.26,1,1,0,0,0-.4.09,2.56,2.56,0,0,0-.39.22,3.31,3.31,0,0,0-.34.3l-.3.29.31.29a4.11,4.11,0,0,0,.35.27,2,2,0,0,0,.38.2A1.16,1.16,0,0,0,941.44,158.31Z"/></g></svg>